<?xml version="1.0" encoding="UTF-8" standalone="no" ?>
<!DOCTYPE svg PUBLIC "-//W3C//DTD SVG 1.1//EN" "http://www.w3.org/Graphics/SVG/1.1/DTD/svg11.dtd">
<svg xmlns="http://www.w3.org/2000/svg" xmlns:xlink="http://www.w3.org/1999/xlink" version="1.1" width="400" height="400" viewBox="0 0 400 400" xml:space="preserve">
<desc>Created with Fabric.js 3.6.2</desc>
<defs>
</defs>
<g transform="matrix(0.39 0 0 0.39 200 200)"  >
<linearGradient id="SVGID__Linear1_1" gradientUnits="userSpaceOnUse" gradientTransform="matrix(-149.62 494.3 -494.3 -149.62 300.81 -27.13)"  x1="0" y1="0" x2="1" y2="0">
<stop offset="0%" style="stop-color:rgb(81,91,212);stop-opacity: 1"/>
<stop offset="26%" style="stop-color:rgb(149,16,184);stop-opacity: 1"/>
<stop offset="66%" style="stop-color:rgb(229,24,4);stop-opacity: 1"/>
<stop offset="100%" style="stop-color:rgb(254,218,119);stop-opacity: 1"/>
</linearGradient>
<path style="stroke: none; stroke-width: 1; stroke-dasharray: none; stroke-linecap: butt; stroke-dashoffset: 0; stroke-linejoin: round; stroke-miterlimit: 2; fill: url(#SVGID__Linear1_1); fill-rule: nonzero; opacity: 1;"  transform=" translate(-256, -256)" d="M 256 0 c -69.526 0 -78.244 0.295 -105.549 1.541 c -27.248 1.243 -45.858 5.57 -62.142 11.899 c -16.834 6.542 -31.111 15.296 -45.342 29.528 c -14.232 14.231 -22.986 28.508 -29.528 45.342 c -6.329 16.283 -10.656 34.893 -11.899 62.141 c -1.246 27.305 -1.54 36.023 -1.54 105.549 c 0 69.524 0.294 78.242 1.54 105.547 c 1.243 27.248 5.57 45.858 11.899 62.141 c 6.542 16.834 15.296 31.111 29.528 45.344 c 14.231 14.231 28.508 22.985 45.342 29.527 c 16.284 6.328 34.894 10.656 62.142 11.899 c 27.305 1.245 36.023 1.54 105.549 1.54 c 69.524 0 78.242 -0.295 105.547 -1.54 c 27.248 -1.243 45.858 -5.571 62.141 -11.899 c 16.834 -6.542 31.111 -15.296 45.344 -29.527 c 14.231 -14.233 22.985 -28.51 29.527 -45.344 c 6.328 -16.283 10.656 -34.893 11.899 -62.141 c 1.245 -27.305 1.54 -36.023 1.54 -105.547 c 0 -69.526 -0.295 -78.244 -1.54 -105.549 c -1.243 -27.248 -5.571 -45.858 -11.899 -62.141 c -6.542 -16.834 -15.296 -31.111 -29.527 -45.342 c -14.233 -14.232 -28.51 -22.986 -45.344 -29.528 c -16.283 -6.329 -34.893 -10.656 -62.141 -11.899 c -27.305 -1.246 -36.023 -1.541 -105.547 -1.541 Z m 0 46.127 c 68.354 0 76.451 0.26 103.445 1.492 c 24.959 1.139 38.514 5.309 47.535 8.814 c 11.949 4.644 20.477 10.192 29.435 19.15 c 8.959 8.958 14.506 17.487 19.15 29.435 c 3.506 9.021 7.676 22.576 8.815 47.535 c 1.231 26.995 1.492 35.092 1.492 103.447 c 0 68.354 -0.261 76.451 -1.492 103.445 c -1.139 24.959 -5.309 38.514 -8.815 47.535 c -4.644 11.949 -10.191 20.477 -19.15 29.435 c -8.958 8.959 -17.486 14.506 -29.435 19.15 c -9.021 3.506 -22.576 7.676 -47.535 8.814 c -26.99 1.232 -35.086 1.493 -103.445 1.493 c -68.361 0 -76.455 -0.261 -103.447 -1.493 c -24.959 -1.138 -38.514 -5.308 -47.535 -8.814 c -11.949 -4.644 -20.477 -10.191 -29.436 -19.15 c -8.958 -8.958 -14.506 -17.486 -19.149 -29.435 c -3.506 -9.021 -7.676 -22.576 -8.815 -47.535 c -1.232 -26.994 -1.492 -35.091 -1.492 -103.445 c 0 -68.355 0.26 -76.452 1.492 -103.447 c 1.139 -24.959 5.309 -38.514 8.815 -47.535 c 4.643 -11.948 10.191 -20.477 19.149 -29.435 c 8.959 -8.958 17.487 -14.506 29.436 -19.15 c 9.021 -3.505 22.576 -7.675 47.535 -8.814 c 26.995 -1.232 35.092 -1.492 103.447 -1.492 Z" stroke-linecap="round" />
</g>
<g transform="matrix(0.39 0 0 0.39 200 200)"  >
<linearGradient id="SVGID__Linear2_2" gradientUnits="userSpaceOnUse" gradientTransform="matrix(-149.62 494.3 -494.3 -149.62 300.81 -27.13)"  x1="0" y1="0" x2="1" y2="0">
<stop offset="0%" style="stop-color:rgb(81,91,212);stop-opacity: 1"/>
<stop offset="26%" style="stop-color:rgb(149,16,184);stop-opacity: 1"/>
<stop offset="66%" style="stop-color:rgb(229,24,4);stop-opacity: 1"/>
<stop offset="100%" style="stop-color:rgb(255,191,0);stop-opacity: 1"/>
</linearGradient>
<path style="stroke: none; stroke-width: 1; stroke-dasharray: none; stroke-linecap: butt; stroke-dashoffset: 0; stroke-linejoin: round; stroke-miterlimit: 2; fill: url(#SVGID__Linear2_2); fill-rule: nonzero; opacity: 1;"  transform=" translate(-256, -256)" d="M 256 341.332 c -47.129 0 -85.334 -38.205 -85.334 -85.332 c 0 -47.129 38.205 -85.334 85.334 -85.334 c 47.127 0 85.332 38.205 85.332 85.334 c 0 47.127 -38.205 85.332 -85.332 85.332 Z m 0 -216.792 c -72.604 0 -131.46 58.856 -131.46 131.46 c 0 72.602 58.856 131.458 131.46 131.458 c 72.602 0 131.458 -58.856 131.458 -131.458 c 0 -72.604 -58.856 -131.46 -131.458 -131.46 Z" stroke-linecap="round" />
</g>
<g transform="matrix(0.39 0 0 0.39 253.38 146.62)"  >
<linearGradient id="SVGID__Linear3_3" gradientUnits="userSpaceOnUse" gradientTransform="matrix(-149.62 494.3 -494.3 -149.62 300.81 -27.13)"  x1="0" y1="0" x2="1" y2="0">
<stop offset="0%" style="stop-color:rgb(81,91,212);stop-opacity: 1"/>
<stop offset="26%" style="stop-color:rgb(149,16,184);stop-opacity: 1"/>
<stop offset="66%" style="stop-color:rgb(229,24,4);stop-opacity: 1"/>
<stop offset="100%" style="stop-color:rgb(255,191,0);stop-opacity: 1"/>
</linearGradient>
<path style="stroke: none; stroke-width: 1; stroke-dasharray: none; stroke-linecap: butt; stroke-dashoffset: 0; stroke-linejoin: round; stroke-miterlimit: 2; fill: url(#SVGID__Linear3_3); fill-rule: nonzero; opacity: 1;"  transform=" translate(-392.65, -119.35)" d="M 423.372 119.346 c 0 16.967 -13.754 30.72 -30.72 30.72 c -16.966 0 -30.72 -13.753 -30.72 -30.72 c 0 -16.966 13.754 -30.719 30.72 -30.719 c 16.966 0 30.72 13.753 30.72 30.719 Z" stroke-linecap="round" />
</g>
</svg>